<svg version="1.1" id="Layer_1" xmlns="http://www.w3.org/2000/svg" xmlns:xlink="http://www.w3.org/1999/xlink" x="0px" y="0px"
	 width="100%" viewBox="0 0 405 349" enable-background="new 0 0 405 349" xml:space="preserve">
<path fill="#FEFEFE" opacity="1.000000" stroke="none" 
	d="
M209.000000,1.000000 
	C274.647491,1.000000 340.294983,1.000000 405.971252,1.000000 
	C405.971252,117.280190 405.971252,233.560379 405.971252,349.920288 
	C271.092621,349.920288 136.185150,349.920288 1.138848,349.920288 
	C1.138848,233.666763 1.138848,117.333412 1.138848,1.000000 
	C66.434395,1.000000 131.748535,1.000000 197.372314,1.362080 
	C178.331070,4.598394 164.334457,14.974240 155.091110,32.056953 
	C142.903717,54.580624 130.726639,77.110146 118.424927,99.571327 
	C116.994591,102.182945 116.855736,104.167511 118.364265,106.838852 
	C124.736664,118.123337 130.855576,129.550949 137.069458,140.924973 
	C142.518921,150.899796 147.971436,160.872971 153.754761,171.454590 
	C170.721222,140.236801 187.363159,109.616119 204.226624,78.587837 
	C205.337204,80.575050 206.145126,81.986885 206.921967,83.415619 
	C252.540176,167.316040 298.154175,251.218765 343.774994,335.117767 
	C347.283020,341.569244 348.831238,342.264313 355.888214,340.730042 
	C385.437195,334.305847 400.145813,302.257538 385.758972,275.581055 
	C377.463867,260.200073 369.112183,244.849579 360.776184,229.490677 
	C324.970795,163.520081 289.132233,97.567474 253.378601,31.568840 
	C246.058044,18.055622 235.438858,8.590993 220.739502,3.932576 
	C216.901962,2.716410 212.917160,1.964907 209.000000,1.000000 
M62.119694,100.790443 
	C56.495449,112.295250 57.124878,123.390656 63.320686,134.661972 
	C82.675026,169.871124 101.750374,205.233658 120.925674,240.541199 
	C134.911377,266.293060 148.824203,292.084747 162.885971,317.795013 
	C170.845566,332.348175 182.926117,340.875549 199.832245,340.971863 
	C217.084793,341.070160 229.536636,332.748383 237.713562,317.723969 
	C250.841705,293.602081 263.951447,269.469818 277.203857,245.416306 
	C278.730438,242.645462 278.936554,240.604309 277.301544,237.724548 
	C270.565552,225.860428 264.155060,213.811661 257.607635,201.840225 
	C255.574829,198.123337 253.487549,194.436218 250.949554,189.881882 
	C233.863571,221.319458 217.281906,251.829071 200.436417,282.824127 
	C182.071442,248.946167 164.106049,215.712662 146.052002,182.527390 
	C128.501099,150.266922 110.801849,118.086945 93.345337,85.775681 
	C91.577583,82.503624 89.323730,82.869438 86.721794,83.344475 
	C76.121613,85.279724 68.074883,90.961723 62.119694,100.790443 
M86.601646,202.908249 
	C82.616127,195.630005 78.630608,188.351761 74.487267,180.785324 
	C71.789017,185.723770 69.232460,190.378143 66.698448,195.044739 
	C49.722569,226.307220 32.436859,257.407196 15.908484,288.904572 
	C7.342997,305.227448 14.812232,326.814667 30.596481,336.294006 
	C39.300644,341.521362 48.656281,341.416962 58.121838,341.063629 
	C59.794289,341.001190 62.127167,339.590881 62.931602,338.129517 
	C78.639000,309.594666 94.128685,280.940033 109.787201,252.378067 
	C111.250580,249.708786 111.169327,247.696854 109.716896,245.093079 
	C102.025917,231.305511 94.513145,217.418533 86.601646,202.908249 
M318.237213,83.006432 
	C311.367889,81.622009 306.740326,84.081062 304.649170,90.914963 
	C304.554443,91.224541 304.351929,91.515808 304.148102,91.775093 
	C302.024109,94.476891 302.468811,96.941780 304.132751,99.866341 
	C309.890106,109.985466 315.349915,120.273659 320.943542,130.486252 
	C323.944885,135.966034 326.988159,141.422852 330.364136,147.525681 
	C334.576752,139.707581 338.148865,132.556702 342.190216,125.681625 
	C351.952362,109.074318 342.389526,85.153786 318.237213,83.006432 
z"/>
<path fill="#22211F" opacity="1.000000" stroke="none" 
	d="
M208.541931,1.000000 
	C212.917160,1.964907 216.901962,2.716410 220.739502,3.932576 
	C235.438858,8.590993 246.058044,18.055622 253.378601,31.568840 
	C289.132233,97.567474 324.970795,163.520081 360.776184,229.490677 
	C369.112183,244.849579 377.463867,260.200073 385.758972,275.581055 
	C400.145813,302.257538 385.437195,334.305847 355.888214,340.730042 
	C348.831238,342.264313 347.283020,341.569244 343.774994,335.117767 
	C298.154175,251.218765 252.540176,167.316040 206.921967,83.415619 
	C206.145126,81.986885 205.337204,80.575050 204.226624,78.587837 
	C187.363159,109.616119 170.721222,140.236801 153.754761,171.454590 
	C147.971436,160.872971 142.518921,150.899796 137.069458,140.924973 
	C130.855576,129.550949 124.736664,118.123337 118.364265,106.838852 
	C116.855736,104.167511 116.994591,102.182945 118.424927,99.571327 
	C130.726639,77.110146 142.903717,54.580624 155.091110,32.056953 
	C164.334457,14.974240 178.331070,4.598394 197.840973,1.362080 
	C201.361282,1.000000 204.722580,1.000000 208.541931,1.000000 
z"/>
<path fill="#FFA734" opacity="1.000000" stroke="none" 
	d="
M62.284599,100.455688 
	C68.074883,90.961723 76.121613,85.279724 86.721794,83.344475 
	C89.323730,82.869438 91.577583,82.503624 93.345337,85.775681 
	C110.801849,118.086945 128.501099,150.266922 146.052002,182.527390 
	C164.106049,215.712662 182.071442,248.946167 200.436417,282.824127 
	C217.281906,251.829071 233.863571,221.319458 250.949554,189.881882 
	C253.487549,194.436218 255.574829,198.123337 257.607635,201.840225 
	C264.155060,213.811661 270.565552,225.860428 277.301544,237.724548 
	C278.936554,240.604309 278.730438,242.645462 277.203857,245.416306 
	C263.951447,269.469818 250.841705,293.602081 237.713562,317.723969 
	C229.536636,332.748383 217.084793,341.070160 199.832245,340.971863 
	C182.926117,340.875549 170.845566,332.348175 162.885971,317.795013 
	C148.824203,292.084747 134.911377,266.293060 120.925674,240.541199 
	C101.750374,205.233658 82.675026,169.871124 63.320686,134.661972 
	C57.124878,123.390656 56.495449,112.295250 62.284599,100.455688 
z"/>
<path fill="#22211F" opacity="1.000000" stroke="none" 
	d="
M86.770126,203.237122 
	C94.513145,217.418533 102.025917,231.305511 109.716896,245.093079 
	C111.169327,247.696854 111.250580,249.708786 109.787201,252.378067 
	C94.128685,280.940033 78.639000,309.594666 62.931602,338.129517 
	C62.127167,339.590881 59.794289,341.001190 58.121838,341.063629 
	C48.656281,341.416962 39.300644,341.521362 30.596481,336.294006 
	C14.812232,326.814667 7.342997,305.227448 15.908484,288.904572 
	C32.436859,257.407196 49.722569,226.307220 66.698448,195.044739 
	C69.232460,190.378143 71.789017,185.723770 74.487267,180.785324 
	C78.630608,188.351761 82.616127,195.630005 86.770126,203.237122 
z"/>
<path fill="#FFA835" opacity="1.000000" stroke="none" 
	d="
M318.684052,83.028473 
	C342.389526,85.153786 351.952362,109.074318 342.190216,125.681625 
	C338.148865,132.556702 334.576752,139.707581 330.364136,147.525681 
	C326.988159,141.422852 323.944885,135.966034 320.943542,130.486252 
	C315.349915,120.273659 309.890106,109.985466 304.132751,99.866341 
	C302.468811,96.941780 302.024109,94.476891 304.148102,91.775093 
	C304.351929,91.515808 304.554443,91.224541 304.649170,90.914963 
	C306.740326,84.081062 311.367889,81.622009 318.684052,83.028473 
z"/>
</svg>