<svg width="23" height="20" viewBox="0 0 23 20" fill="none" xmlns="http://www.w3.org/2000/svg">
<path d="M11.3535 6.375H11.5C12.3464 6.375 13.0788 6.68424 13.6973 7.30273C14.3158 7.92122 14.625 8.65365 14.625 9.5V9.69531L11.3535 6.375ZM6.86133 7.20508C6.4707 7.98633 6.27539 8.7513 6.27539 9.5C6.27539 10.9323 6.77995 12.1693 7.78906 13.2109C8.83073 14.2201 10.0677 14.7246 11.5 14.7246C12.2487 14.7246 13.0137 14.5293 13.7949 14.1387L12.1836 12.5273C11.9232 12.5924 11.6953 12.625 11.5 12.625C10.6536 12.625 9.92122 12.3158 9.30273 11.6973C8.68424 11.0788 8.375 10.3464 8.375 9.5C8.375 9.30469 8.40755 9.07682 8.47266 8.81641L6.86133 7.20508ZM1.09961 1.44336L2.41797 0.125L20.875 18.582L19.5566 19.9004C19.3939 19.7376 18.873 19.2331 17.9941 18.3867C17.1478 17.5404 16.4967 16.8893 16.041 16.4336C14.6413 17.0195 13.1276 17.3125 11.5 17.3125C8.92839 17.3125 6.60091 16.5964 4.51758 15.1641C2.43424 13.7318 0.936849 11.8438 0.0253906 9.5C0.383464 8.65365 0.936849 7.72591 1.68555 6.7168C2.4668 5.67513 3.21549 4.8776 3.93164 4.32422C3.54102 3.93359 2.98763 3.38021 2.27148 2.66406C1.58789 1.94792 1.19727 1.54102 1.09961 1.44336ZM11.5 4.27539C10.849 4.27539 10.2142 4.4056 9.5957 4.66602L7.34961 2.41992C8.61914 1.93164 10.0026 1.6875 11.5 1.6875C14.0716 1.6875 16.3828 2.40365 18.4336 3.83594C20.5169 5.26823 22.0143 7.15625 22.9258 9.5C22.1445 11.4206 20.9564 13.0645 19.3613 14.4316L16.334 11.4043C16.5944 10.7858 16.7246 10.151 16.7246 9.5C16.7246 8.06771 16.2038 6.84701 15.1621 5.83789C14.153 4.79622 12.9323 4.27539 11.5 4.27539Z" fill="#858585"/>
</svg>
